{"title":"The Lord of the Rings: Trilogy (2001-2003) - Extended Edition [E","uid":11367640,"size":200906766976,"categoryP":"video","categoryS":"hd___movies","magnet":"?xt=urn:btih:6682b0ea29642bbee81245636963ed6b857b8304&amp;dn=The+Lord+of+the+Rings%3A+Trilogy+%282001-2003%29+-+Extended+Edition+%5BE&amp;tr=udp%3A%2F%2Ftracker.openbittorrent.com%3A80&amp;tr=udp%3A%2F%2Fopen.demonii.com%3A1337&amp;tr=udp%3A%2F%2Ftracker.coppersurfer.tk%3A6969&amp;tr=udp%3A%2F%2Fexodus.desync.com%3A6969","seeders":0,"leechers":8,"uploader":"gixer1000k9","files":-1,"time":1415058227,"description":"#############################################################\nThe Lord of the Rings: Trilogy (2001-2003) - Extended Edition\n#############################################################\n\n********************************************************\nThe Lord of the Rings: The Fellowship of the Ring (2001)\n********************************************************\n\nAn ancient Ring thought lost for centuries has been found, and through a strange twist in fate has been given to a small Hobbit named Frodo. When Gandalf discovers the Ring is in fact the One Ring of the Dark Lord Sauron, Frodo must make an epic quest to the Cracks of Doom in order to destroy it! However he does not go alone. He is joined by Gandalf, Legolas the elf, Gimli the Dwarf, Aragorn, Boromir and his three Hobbit friends Merry, Pippin and Samwise. Through mountains, snow, darkness, forests, rivers and plains, facing evil and danger at every corner the Fellowship of the Ring must go. Their quest to destroy the One Ring is the only hope for the end of the Dark Lords reign!\n\n &lt;a href=&quot;\nhttp://i.imgur.com/Qvpxb1Z.jpg&quot; rel=&quot;nofollow&quot; target=&quot;_NEW&quot;&gt;\nhttp://i.imgur.com/Qvpxb1Z.jpg&lt;/a&gt;\n &lt;a href=&quot;\nhttp://i.imgur.com/wkJ4JYx.jpg&quot; rel=&quot;nofollow&quot; target=&quot;_NEW&quot;&gt;\nhttp://i.imgur.com/wkJ4JYx.jpg&lt;/a&gt;\n &lt;a href=&quot;\nhttp://i.imgur.com/FiBGBEk.jpg&quot; rel=&quot;nofollow&quot; target=&quot;_NEW&quot;&gt;\nhttp://i.imgur.com/FiBGBEk.jpg&lt;/a&gt;\n &lt;a href=&quot;\nhttp://i.imgur.com/rSfx8I9.jpg&quot; rel=&quot;nofollow&quot; target=&quot;_NEW&quot;&gt;\nhttp://i.imgur.com/rSfx8I9.jpg&lt;/a&gt;\n\n\nTechnical Data:\n\nDISC INFO:\n\nDisc Title: The Fellowship of the Ring (2001) DISC_1\nDisc Size: 29 470 524 764 bytes\nProtection: AACS\nBD-Java: No\nBDInfo: 0.5.8\n\nPLAYLIST REPORT:\n\nName: 00000.MPLS\nLength: 1:45:43.420 (h:m:s.ms)\nSize: 29 470 420 992 bytes\nTotal Bitrate: 37,17 Mbps\n\nVIDEO:\n\nCodec Bitrate Description \n----- ------- ----------- \nMPEG-4 AVC Video 29857 kbps 1080p / 23,976 fps / 16:9 / High Profile 4.1\n\nAUDIO:\n\nCodec Language Bitrate Description \n----- -------- ------- ----------- \nDTS-HD Master Audio English 4718 kbps 6.1 / 48 kHz / 4718 kbps / 24-bit (DTS Core: 6.1-ES / 48 kHz / 1509 kbps / 24-bit)\nDolby Digital EX Audio Polish 640 kbps 5.1-EX / 48 kHz / 640 kbps / DN -4dB\n\nSUBTITLES:\n\nCodec Language Bitrate Description \n----- -------- ------- ----------- \nPresentation Graphics English 25,799 kbps \nPresentation Graphics Polish 19,869 kbps \n\nFILES:\n\nName Time In Length Size Total Bitrate \n---- ------- ------ ---- ------------- \n00000.M2TS 0:00:00.000 1:45:43.420 29 470 420 992 37 167 \n\nDISC INFO:\n\nDisc Title: The Fellowship of the Ring (2001) DISC_2\nDisc Size: 31 914 596 480 bytes\nProtection: AACS\nBD-Java: No\nBDInfo: 0.5.8\n\nPLAYLIST REPORT:\n\nName: 00000.MPLS\nLength: 2:02:34.346 (h:m:s.ms)\nSize: 31 914 479 616 bytes\nTotal Bitrate: 34,72 Mbps\n\nVIDEO:\n\nCodec Bitrate Description \n----- ------- ----------- \nMPEG-4 AVC Video 29855 kbps 1080p / 23,976 fps / 16:9 / High Profile 4.1\n\nAUDIO:\n\nCodec Language Bitrate Description \n----- -------- ------- ----------- \nDTS-HD Master Audio English 2393 kbps 6.1 / 48 kHz / 2393 kbps / 16-bit (DTS Core: 6.1-ES / 48 kHz / 1509 kbps / 16-bit)\nDolby Digital EX Audio Polish 640 kbps 5.1-EX / 48 kHz / 640 kbps / DN -4dB\n\nSUBTITLES:\n\nCodec Language Bitrate Description \n----- -------- ------- ----------- \nPresentation Graphics English 13,600 kbps \nPresentation Graphics Polish 11,539 kbps \n\nFILES:\n\nName Time In Length Size Total Bitrate \n---- ------- ------ ---- ------------- \n00000.M2TS 0:00:00.000 2:02:34.346 31 914 479 616 34 716\n\n\n\n*******************************************\nThe Lord of the Rings: The Two Towers (2002)\n*******************************************\n\nSauron's forces increase. His allies grow. The Ringwraiths return in an even more frightening form. Saruman's army of Uruk Hai is ready to launch an assault against Aragorn and the people of Rohan. Yet, the Fellowship is broken and Boromir is dead. For the little hope that is left, Frodo and Sam march on into Mordor, unprotected. A number of new allies join with Aragorn, Gimli, Legolas, Pippin and Merry. And they must defend Rohan and attack Isengard. Yet, while all this is going on, Sauron's troops mass toward the City of Gondor, for the War of the Ring is about to begin.\n\n &lt;a href=&quot;\nhttp://i.imgur.com/5nnbE8D.jpg&quot; rel=&quot;nofollow&quot; target=&quot;_NEW&quot;&gt;\nhttp://i.imgur.com/5nnbE8D.jpg&lt;/a&gt;\n &lt;a href=&quot;\nhttp://i.imgur.com/A9vjFEW.jpg&quot; rel=&quot;nofollow&quot; target=&quot;_NEW&quot;&gt;\nhttp://i.imgur.com/A9vjFEW.jpg&lt;/a&gt;\n &lt;a href=&quot;\nhttp://i.imgur.com/6e7Vy5k.jpg&quot; rel=&quot;nofollow&quot; target=&quot;_NEW&quot;&gt;\nhttp://i.imgur.com/6e7Vy5k.jpg&lt;/a&gt;\n &lt;a href=&quot;\nhttp://i.imgur.com/b5dGpFK.jpg&quot; rel=&quot;nofollow&quot; target=&quot;_NEW&quot;&gt;\nhttp://i.imgur.com/b5dGpFK.jpg&lt;/a&gt;\n\n\nTechnical Data:\n\nDISC INFO:\n\nDisc Title: The Two Towers (2002) DISC_1\nDisc Size: 29 516 894 308 bytes\nProtection: AACS\nBD-Java: No\nBDInfo: 0.5.8\n\nPLAYLIST REPORT:\n\nName: 00000.MPLS\nLength: 1:46:39.184 (h:m:s.ms)\nSize: 29 516 789 760 bytes\nTotal Bitrate: 36,90 Mbps\n\nVIDEO:\n\nCodec Bitrate Description \n----- ------- ----------- \nMPEG-4 AVC Video 29894 kbps 1080p / 23,976 fps / 16:9 / High Profile 4.1\n\nAUDIO:\n\nCodec Language Bitrate Description \n----- -------- ------- ----------- \nDTS-HD Master Audio English 4430 kbps 6.1 / 48 kHz / 4430 kbps / 24-bit (DTS Core: 6.1-ES / 48 kHz / 1509 kbps / 24-bit)\nDolby Digital EX Audio Polish 640 kbps 5.1-EX / 48 kHz / 640 kbps / DN -4dB\n\nSUBTITLES:\n\nCodec Language Bitrate Description \n----- -------- ------- ----------- \nPresentation Graphics English 22,464 kbps \nPresentation Graphics Polish 18,347 kbps \n\nFILES:\n\nName Time In Length Size Total Bitrate \n---- ------- ------ ---- ------------- \n00000.M2TS 0:00:00.000 1:46:39.184 29 516 789 760 36 901 \n\nDISC INFO:\n\nDisc Title: The Two Towers (2002) DISC_2\nDisc Size: 35 718 072 932 bytes\nProtection: AACS\nBD-Java: No\nBDInfo: 0.5.8\n\nPLAYLIST REPORT:\n\nName: 00000.MPLS\nLength: 2:08:50.931 (h:m:s.ms)\nSize: 35 717 947 392 bytes\nTotal Bitrate: 36,96 Mbps\n\nVIDEO:\n\nCodec Bitrate Description \n----- ------- ----------- \nMPEG-4 AVC Video 29872 kbps 1080p / 23,976 fps / 16:9 / High Profile 4.1\n\nAUDIO:\n\nCodec Language Bitrate Description \n----- -------- ------- ----------- \nDTS-HD Master Audio English 4519 kbps 6.1 / 48 kHz / 4519 kbps / 24-bit (DTS Core: 6.1-ES / 48 kHz / 1509 kbps / 24-bit)\nDolby Digital EX Audio Polish 640 kbps 5.1-EX / 48 kHz / 640 kbps / DN -4dB\n\nSUBTITLES:\n\nCodec Language Bitrate Description \n----- -------- ------- ----------- \nPresentation Graphics English 17,825 kbps \nPresentation Graphics Polish 14,248 kbps \n\nFILES:\n\nName Time In Length Size Total Bitrate \n---- ------- ------ ---- ------------- \n00000.M2TS 0:00:00.000 2:08:50.931 35 717 947 392 36 961\n\n\n\n****************************************************\nThe Lord of the Rings: The Return of the King (2003)\n****************************************************\n\nWhile Frodo &amp; Sam continue to approach Mount Doom to destroy the One Ring, unaware of the path Gollum is leading them, the former Fellowship aid Rohan &amp; Gondor in a great battle in the Pelennor Fields, Minas Tirith and the Black Gates as Sauron wages his last war against Middle-Earth.\n\n &lt;a href=&quot;\nhttp://i.imgur.com/2ael7FA.jpg&quot; rel=&quot;nofollow&quot; target=&quot;_NEW&quot;&gt;\nhttp://i.imgur.com/2ael7FA.jpg&lt;/a&gt;\n &lt;a href=&quot;\nhttp://i.imgur.com/slPtc11.jpg&quot; rel=&quot;nofollow&quot; target=&quot;_NEW&quot;&gt;\nhttp://i.imgur.com/slPtc11.jpg&lt;/a&gt;\n &lt;a href=&quot;\nhttp://i.imgur.com/tCbZrdx.jpg&quot; rel=&quot;nofollow&quot; target=&quot;_NEW&quot;&gt;\nhttp://i.imgur.com/tCbZrdx.jpg&lt;/a&gt;\n &lt;a href=&quot;\nhttp://i.imgur.com/Lf5CmQV.jpg&quot; rel=&quot;nofollow&quot; target=&quot;_NEW&quot;&gt;\nhttp://i.imgur.com/Lf5CmQV.jpg&lt;/a&gt;\n\n\nTechnical Data:\n\nDISC INFO:\n\nDisc Title: The Return of the King (2003) DISC_1\nDisc Size: 35 718 852 732 bytes\nProtection: AACS\nBD-Java: No\nBDInfo: 0.5.8\n\nPLAYLIST REPORT:\n\nName: 00000.MPLS\nLength: 2:07:40.235 (h:m:s.ms)\nSize: 35 718 727 680 bytes\nTotal Bitrate: 37,30 Mbps\n\nVIDEO:\n\nCodec Bitrate Description \n----- ------- ----------- \nMPEG-4 AVC Video 30236 kbps 1080p / 23,976 fps / 16:9 / High Profile 4.1\n\nAUDIO:\n\nCodec Language Bitrate Description \n----- -------- ------- ----------- \nDTS-HD Master Audio English 4476 kbps 6.1 / 48 kHz / 4476 kbps / 24-bit (DTS Core: 6.1-ES / 48 kHz / 1509 kbps / 24-bit)\nDolby Digital EX Audio Polish 640 kbps 5.1-EX / 48 kHz / 640 kbps / DN -4dB\n\nSUBTITLES:\n\nCodec Language Bitrate Description \n----- -------- ------- ----------- \nPresentation Graphics English 21,880 kbps \nPresentation Graphics Polish 17,744 kbps \n\nFILES:\n\nName Time In Length Size Total Bitrate \n---- ------- ------ ---- ------------- \n00000.M2TS 0:00:00.000 2:07:40.235 35 718 727 680 37 303 \n\nDISC INFO:\n\nDisc Title: The Return of the King (2003) DISC_2\nDisc Size: 38 567 757 868 bytes\nProtection: AACS\nBD-Java: No\nBDInfo: 0.5.8\n\nPLAYLIST REPORT:\n\nName: 00000.MPLS\nLength: 2:15:35.460 (h:m:s.ms)\nSize: 38 567 624 064 bytes\nTotal Bitrate: 37,93 Mbps\n\nVIDEO:\n\nCodec Bitrate Description \n----- ------- ----------- \nMPEG-4 AVC Video 30703 kbps 1080p / 23,976 fps / 16:9 / High Profile 4.1\n\nAUDIO:\n\nCodec Language Bitrate Description \n----- -------- ------- ----------- \nDTS-HD Master Audio English 4625 kbps 6.1 / 48 kHz / 4625 kbps / 24-bit (DTS Core: 6.1-ES / 48 kHz / 1509 kbps / 24-bit)\nDolby Digital EX Audio Polish 640 kbps 5.1-EX / 48 kHz / 640 kbps / DN -4dB\n\nSUBTITLES:\n\nCodec Language Bitrate Description \n----- -------- ------- ----------- \nPresentation Graphics English 11,167 kbps \nPresentation Graphics Polish 8,611 kbps \n\nFILES:\n\nName Time In Length Size Total Bitrate \n---- ------- ------ ---- ------------- \n00000.M2TS 0:00:00.000 2:15:35.460 38 567 624 064 37 925","torrent":{"xt":"urn:btih:6682b0ea29642bbee81245636963ed6b857b8304","amp;dn":"The+Lord+of+the+Rings%3A+Trilogy+%282001-2003%29+-+Extended+Edition+%5BE","amp;tr":["udp%3A%2F%2Ftracker.openbittorrent.com%3A80","udp%3A%2F%2Fopen.demonii.com%3A1337","udp%3A%2F%2Ftracker.coppersurfer.tk%3A6969","udp%3A%2F%2Fexodus.desync.com%3A6969"],"infoHash":"6682b0ea29642bbee81245636963ed6b857b8304","infoHashBuffer":{"type":"Buffer","data":[102,130,176,234,41,100,43,190,232,18,69,99,105,99,237,107,133,123,131,4]},"announce":[],"urlList":[]}}